<svg width="41" height="41" viewBox="0 0 41 41" fill="none" xmlns="http://www.w3.org/2000/svg">
<path d="M20.4998 3.41666C18.2564 3.41666 16.035 3.85853 13.9623 4.71705C11.8897 5.57557 10.0064 6.83391 8.4201 8.42025C5.21635 11.624 3.4165 15.9692 3.4165 20.5C3.4165 28.0508 8.31942 34.4571 15.1015 36.7292C15.9557 36.8658 16.229 36.3362 16.229 35.875V32.9879C11.4969 34.0129 10.489 30.6987 10.489 30.6987C9.70317 28.7171 8.59275 28.1875 8.59275 28.1875C7.03817 27.1283 8.71234 27.1625 8.71234 27.1625C10.4207 27.2821 11.3261 28.9221 11.3261 28.9221C12.8123 31.5187 15.3236 30.75 16.2973 30.34C16.4511 29.2296 16.8953 28.4779 17.3736 28.0508C13.5811 27.6237 9.60067 26.1546 9.60067 19.6458C9.60067 17.7496 10.2498 16.2292 11.3603 15.0162C11.1894 14.5892 10.5915 12.8125 11.5311 10.5062C11.5311 10.5062 12.9661 10.045 16.229 12.2487C17.5786 11.8729 19.0478 11.685 20.4998 11.685C21.9519 11.685 23.4211 11.8729 24.7707 12.2487C28.0336 10.045 29.4686 10.5062 29.4686 10.5062C30.4082 12.8125 29.8103 14.5892 29.6394 15.0162C30.7498 16.2292 31.399 17.7496 31.399 19.6458C31.399 26.1717 27.4015 27.6067 23.5919 28.0337C24.2069 28.5633 24.7707 29.6054 24.7707 31.1942V35.875C24.7707 36.3362 25.044 36.8829 25.9153 36.7292C32.6973 34.44 37.5832 28.0508 37.5832 20.5C37.5832 18.2566 37.1413 16.0351 36.2828 13.9625C35.4243 11.8898 34.1659 10.0066 32.5796 8.42025C30.9932 6.83391 29.11 5.57557 27.0373 4.71705C24.9647 3.85853 22.7433 3.41666 20.4998 3.41666Z" fill="black"/>
</svg>
