<svg width="45" height="32" viewBox="0 0 45 32" fill="none" xmlns="http://www.w3.org/2000/svg">
<path d="M44.0025 4.99111C43.7444 4.02641 43.241 3.14692 42.5424 2.44023C41.8438 1.73353 40.9744 1.22429 40.0207 0.9632C36.5294 0 22.4777 0 22.4777 0C22.4777 0 8.4253 0.0291555 4.93392 0.992356C3.98022 1.25346 3.11079 1.76273 2.4122 2.46946C1.71361 3.17619 1.21023 4.05571 0.952193 5.02044C-0.103871 11.2956 -0.513537 20.8576 0.981191 26.8818C1.23925 27.8465 1.74264 28.726 2.44123 29.4327C3.13983 30.1394 4.00924 30.6486 4.96291 30.9097C8.4543 31.8729 22.5063 31.8729 22.5063 31.8729C22.5063 31.8729 36.5582 31.8729 40.0494 30.9097C41.0031 30.6486 41.8725 30.1394 42.5712 29.4327C43.2698 28.726 43.7732 27.8465 44.0313 26.8818C45.1452 20.5977 45.4884 11.0416 44.0025 4.99111Z" fill="#FF0000"/>
<path d="M18.0044 22.7662L29.6613 15.9363L18.0044 9.10648V22.7662Z" fill="white"/>
</svg>
